<svg id="visual" viewBox="0 0 900 600" width="900" height="600" xmlns="http://www.w3.org/2000/svg" xmlns:xlink="http://www.w3.org/1999/xlink" version="1.1"><g stroke-width="1" stroke-linejoin="bevel"><path d="M401 302L300 318L414 372Z" fill="#007079" stroke="#007079"></path><path d="M300 318L307 387L414 372Z" fill="#046875" stroke="#046875"></path><path d="M401 302L290 229L300 318Z" fill="#0b6171" stroke="#0b6171"></path><path d="M300 318L183 395L307 387Z" fill="#1e4a5f" stroke="#1e4a5f"></path><path d="M371 531L489 415L414 372Z" fill="#008d78" stroke="#008d78"></path><path d="M414 372L523 267L401 302Z" fill="#0b6171" stroke="#0b6171"></path><path d="M290 229L210 275L300 318Z" fill="#007079" stroke="#007079"></path><path d="M523 267L387 179L401 302Z" fill="#00787b" stroke="#00787b"></path><path d="M401 302L387 179L290 229Z" fill="#00867a" stroke="#00867a"></path><path d="M210 275L183 395L300 318Z" fill="#00867a" stroke="#00867a"></path><path d="M307 387L371 531L414 372Z" fill="#1e4a5f" stroke="#1e4a5f"></path><path d="M290 229L214 234L210 275Z" fill="#009473" stroke="#009473"></path><path d="M89 305L102 399L183 395Z" fill="#008d78" stroke="#008d78"></path><path d="M203 125L214 234L290 229Z" fill="#008d78" stroke="#008d78"></path><path d="M489 415L523 267L414 372Z" fill="#0b6171" stroke="#0b6171"></path><path d="M299 531L371 531L307 387Z" fill="#007f7c" stroke="#007f7c"></path><path d="M221 534L299 531L307 387Z" fill="#13596c" stroke="#13596c"></path><path d="M371 531L509 512L489 415Z" fill="#009473" stroke="#009473"></path><path d="M489 415L589 300L523 267Z" fill="#13596c" stroke="#13596c"></path><path d="M523 267L523 194L387 179Z" fill="#007079" stroke="#007079"></path><path d="M523 194L403 121L387 179Z" fill="#046875" stroke="#046875"></path><path d="M387 179L295 115L290 229Z" fill="#009473" stroke="#009473"></path><path d="M183 395L221 534L307 387Z" fill="#008d78" stroke="#008d78"></path><path d="M299 531L409 600L371 531Z" fill="#00867a" stroke="#00867a"></path><path d="M509 512L580 409L489 415Z" fill="#0b6171" stroke="#0b6171"></path><path d="M523 267L616 201L523 194Z" fill="#00867a" stroke="#00867a"></path><path d="M580 409L589 300L489 415Z" fill="#008d78" stroke="#008d78"></path><path d="M403 121L295 115L387 179Z" fill="#046875" stroke="#046875"></path><path d="M260 600L409 600L299 531Z" fill="#007f7c" stroke="#007f7c"></path><path d="M371 531L409 600L509 512Z" fill="#1e4a5f" stroke="#1e4a5f"></path><path d="M89 305L183 395L210 275Z" fill="#0b6171" stroke="#0b6171"></path><path d="M183 395L88 504L221 534Z" fill="#13596c" stroke="#13596c"></path><path d="M295 115L203 125L290 229Z" fill="#007f7c" stroke="#007f7c"></path><path d="M214 234L89 305L210 275Z" fill="#046875" stroke="#046875"></path><path d="M64 187L89 305L214 234Z" fill="#008d78" stroke="#008d78"></path><path d="M171 600L260 600L221 534Z" fill="#007079" stroke="#007079"></path><path d="M221 534L260 600L299 531Z" fill="#13596c" stroke="#13596c"></path><path d="M616 201L524 111L523 194Z" fill="#0b6171" stroke="#0b6171"></path><path d="M523 194L524 111L403 121Z" fill="#13596c" stroke="#13596c"></path><path d="M403 121L319 0L295 115Z" fill="#007f7c" stroke="#007f7c"></path><path d="M529 600L592 519L509 512Z" fill="#009473" stroke="#009473"></path><path d="M509 512L592 519L580 409Z" fill="#00867a" stroke="#00867a"></path><path d="M580 409L666 311L589 300Z" fill="#13596c" stroke="#13596c"></path><path d="M589 300L616 201L523 267Z" fill="#195166" stroke="#195166"></path><path d="M666 311L616 201L589 300Z" fill="#009473" stroke="#009473"></path><path d="M409 600L529 600L509 512Z" fill="#00867a" stroke="#00867a"></path><path d="M0 502L88 504L102 399Z" fill="#195166" stroke="#195166"></path><path d="M102 399L88 504L183 395Z" fill="#009473" stroke="#009473"></path><path d="M734 410L666 311L580 409Z" fill="#00867a" stroke="#00867a"></path><path d="M88 504L171 600L221 534Z" fill="#13596c" stroke="#13596c"></path><path d="M203 125L64 187L214 234Z" fill="#009473" stroke="#009473"></path><path d="M89 305L0 367L102 399Z" fill="#195166" stroke="#195166"></path><path d="M193 0L118 96L203 125Z" fill="#195166" stroke="#195166"></path><path d="M203 125L118 96L64 187Z" fill="#00867a" stroke="#00867a"></path><path d="M193 0L203 125L295 115Z" fill="#009473" stroke="#009473"></path><path d="M410 0L319 0L403 121Z" fill="#007079" stroke="#007079"></path><path d="M524 111L410 0L403 121Z" fill="#046875" stroke="#046875"></path><path d="M616 201L576 69L524 111Z" fill="#007f7c" stroke="#007f7c"></path><path d="M524 111L526 0L410 0Z" fill="#007f7c" stroke="#007f7c"></path><path d="M696 76L576 69L616 201Z" fill="#009473" stroke="#009473"></path><path d="M88 504L107 600L171 600Z" fill="#009473" stroke="#009473"></path><path d="M0 273L0 367L89 305Z" fill="#00787b" stroke="#00787b"></path><path d="M88 504L0 600L107 600Z" fill="#195166" stroke="#195166"></path><path d="M0 237L89 305L64 187Z" fill="#1e4a5f" stroke="#1e4a5f"></path><path d="M0 237L0 273L89 305Z" fill="#009473" stroke="#009473"></path><path d="M632 600L700 473L592 519Z" fill="#195166" stroke="#195166"></path><path d="M592 519L700 473L580 409Z" fill="#1e4a5f" stroke="#1e4a5f"></path><path d="M0 101L0 237L64 187Z" fill="#00867a" stroke="#00867a"></path><path d="M529 600L632 600L592 519Z" fill="#0b6171" stroke="#0b6171"></path><path d="M700 473L734 410L580 409Z" fill="#007f7c" stroke="#007f7c"></path><path d="M666 311L708 180L616 201Z" fill="#13596c" stroke="#13596c"></path><path d="M785 460L734 410L700 473Z" fill="#00867a" stroke="#00867a"></path><path d="M319 0L193 0L295 115Z" fill="#13596c" stroke="#13596c"></path><path d="M118 96L0 101L64 187Z" fill="#1e4a5f" stroke="#1e4a5f"></path><path d="M576 69L526 0L524 111Z" fill="#007079" stroke="#007079"></path><path d="M0 367L0 502L102 399Z" fill="#1e4a5f" stroke="#1e4a5f"></path><path d="M827 223L708 180L666 311Z" fill="#1e4a5f" stroke="#1e4a5f"></path><path d="M576 69L567 0L526 0Z" fill="#00787b" stroke="#00787b"></path><path d="M708 0L567 0L576 69Z" fill="#13596c" stroke="#13596c"></path><path d="M193 0L133 0L118 96Z" fill="#00867a" stroke="#00867a"></path><path d="M632 600L693 600L700 473Z" fill="#13596c" stroke="#13596c"></path><path d="M0 0L0 101L118 96Z" fill="#046875" stroke="#046875"></path><path d="M708 180L696 76L616 201Z" fill="#13596c" stroke="#13596c"></path><path d="M0 502L0 600L88 504Z" fill="#007f7c" stroke="#007f7c"></path><path d="M812 600L785 460L700 473Z" fill="#00787b" stroke="#00787b"></path><path d="M734 410L821 322L666 311Z" fill="#007079" stroke="#007079"></path><path d="M708 180L814 61L696 76Z" fill="#13596c" stroke="#13596c"></path><path d="M785 460L794 430L734 410Z" fill="#00867a" stroke="#00867a"></path><path d="M794 430L821 322L734 410Z" fill="#195166" stroke="#195166"></path><path d="M821 322L827 223L666 311Z" fill="#195166" stroke="#195166"></path><path d="M814 61L708 0L696 76Z" fill="#13596c" stroke="#13596c"></path><path d="M696 76L708 0L576 69Z" fill="#00787b" stroke="#00787b"></path><path d="M133 0L0 0L118 96Z" fill="#046875" stroke="#046875"></path><path d="M693 600L812 600L700 473Z" fill="#195166" stroke="#195166"></path><path d="M900 539L900 362L794 430Z" fill="#13596c" stroke="#13596c"></path><path d="M794 430L900 362L821 322Z" fill="#00867a" stroke="#00867a"></path><path d="M821 322L900 276L827 223Z" fill="#1e4a5f" stroke="#1e4a5f"></path><path d="M827 223L814 61L708 180Z" fill="#008d78" stroke="#008d78"></path><path d="M900 539L794 430L785 460Z" fill="#046875" stroke="#046875"></path><path d="M827 223L900 167L814 61Z" fill="#1e4a5f" stroke="#1e4a5f"></path><path d="M900 362L900 276L821 322Z" fill="#195166" stroke="#195166"></path><path d="M900 0L800 0L814 61Z" fill="#195166" stroke="#195166"></path><path d="M814 61L800 0L708 0Z" fill="#007079" stroke="#007079"></path><path d="M900 276L900 167L827 223Z" fill="#007079" stroke="#007079"></path><path d="M812 600L900 539L785 460Z" fill="#007079" stroke="#007079"></path><path d="M812 600L900 600L900 539Z" fill="#1e4a5f" stroke="#1e4a5f"></path><path d="M900 167L900 74L814 61Z" fill="#1e4a5f" stroke="#1e4a5f"></path><path d="M900 74L900 0L814 61Z" fill="#0b6171" stroke="#0b6171"></path></g></svg>